<svg width="70" height="70" viewBox="0 0 70 70" fill="none" xmlns="http://www.w3.org/2000/svg">
<rect width="70" height="70" fill="black"/>
<path d="M46.0833 20.75H23.9167C22.175 20.75 20.75 22.175 20.75 23.9167V46.0833C20.75 47.825 22.175 49.25 23.9167 49.25H46.0833C47.825 49.25 49.25 47.825 49.25 46.0833V23.9167C49.25 22.175 47.825 20.75 46.0833 20.75ZM36.5833 42.9167H28.6667C27.7958 42.9167 27.0833 42.2042 27.0833 41.3333C27.0833 40.4625 27.7958 39.75 28.6667 39.75H36.5833C37.4542 39.75 38.1667 40.4625 38.1667 41.3333C38.1667 42.2042 37.4542 42.9167 36.5833 42.9167ZM41.3333 36.5833H28.6667C27.7958 36.5833 27.0833 35.8708 27.0833 35C27.0833 34.1292 27.7958 33.4167 28.6667 33.4167H41.3333C42.2042 33.4167 42.9167 34.1292 42.9167 35C42.9167 35.8708 42.2042 36.5833 41.3333 36.5833ZM41.3333 30.25H28.6667C27.7958 30.25 27.0833 29.5375 27.0833 28.6667C27.0833 27.7958 27.7958 27.0833 28.6667 27.0833H41.3333C42.2042 27.0833 42.9167 27.7958 42.9167 28.6667C42.9167 29.5375 42.2042 30.25 41.3333 30.25Z" fill="white"/>
</svg>
