<svg width="70" height="70" viewBox="0 0 70 70" fill="none" xmlns="http://www.w3.org/2000/svg">
<rect width="70" height="70" fill="black"/>
<path d="M22.5 22.5C22.5 21.1739 23.0268 19.9021 23.9645 18.9645C24.9021 18.0268 26.1739 17.5 27.5 17.5C28.8261 17.5 30.0979 18.0268 31.0355 18.9645C31.9732 19.9021 32.5 21.1739 32.5 22.5C32.5 23.8261 31.9732 25.0979 31.0355 26.0355C30.0979 26.9732 28.8261 27.5 27.5 27.5C26.1739 27.5 24.9021 26.9732 23.9645 26.0355C23.0268 25.0979 22.5 23.8261 22.5 22.5V22.5ZM39.4475 26.46L39.5525 26.54C40.6132 27.3263 41.9419 27.661 43.2486 27.4713C44.5552 27.2815 45.7338 26.5826 46.527 25.5271C47.3203 24.4716 47.6638 23.1451 47.4827 21.8372C47.3015 20.5294 46.6104 19.3462 45.5602 18.546C44.5099 17.7458 43.1858 17.3935 41.8767 17.566C40.5677 17.7385 39.38 18.4218 38.5729 19.4668C37.7658 20.5117 37.4047 21.8335 37.5686 23.1437C37.7325 24.4538 38.4079 25.646 39.4475 26.46V26.46ZM30.67 30C30.984 29.4054 31.4147 28.8803 31.9364 28.456C32.458 28.0317 33.0599 27.717 33.706 27.5307C34.3521 27.3444 35.0291 27.2903 35.6965 27.3717C36.364 27.4531 37.0082 27.6683 37.5906 28.0044C38.173 28.3405 38.6816 28.7906 39.086 29.3278C39.4904 29.865 39.7823 30.4783 39.9442 31.1309C40.1061 31.7835 40.1347 32.4621 40.0283 33.126C39.922 33.79 39.6827 34.4256 39.325 34.995C38.6368 36.0903 37.5509 36.8763 36.2953 37.1878C35.0398 37.4993 33.7125 37.3121 32.5921 36.6655C31.4717 36.0189 30.6455 34.9632 30.2871 33.7203C29.9287 32.4773 30.0659 31.1439 30.67 30V30ZM21.25 30H27.925C27.4807 31.2689 27.3841 32.6336 27.6452 33.9524C27.9063 35.2712 28.5157 36.4962 29.41 37.5H28.75C27.4611 37.4998 26.2036 37.898 25.1497 38.64C24.0958 39.382 23.2969 40.4315 22.8625 41.645C22.0233 41.3079 21.2376 40.8506 20.53 40.2875C18.65 38.775 17.5 36.54 17.5 33.75C17.5 32.7554 17.8951 31.8016 18.5983 31.0983C19.3016 30.3951 20.2554 30 21.25 30V30ZM41.25 37.5C42.5386 37.5 43.7956 37.8982 44.8491 38.6402C45.9026 39.3822 46.701 40.4317 47.135 41.645C47.985 41.2975 48.7725 40.845 49.47 40.2875C51.35 38.775 52.5 36.54 52.5 33.75C52.5 32.7554 52.1049 31.8016 51.4017 31.0983C50.6984 30.3951 49.7446 30 48.75 30H42.075C42.35 30.7825 42.5 31.625 42.5 32.5C42.5023 34.3453 41.822 36.1262 40.59 37.5H41.25ZM44.7175 42.32C44.9 42.76 45 43.245 45 43.75C45 46.54 43.8525 48.775 41.97 50.2875C40.1175 51.775 37.6325 52.5 35 52.5C32.3675 52.5 29.8825 51.775 28.03 50.2875C26.15 48.775 25 46.54 25 43.75C24.9987 43.2572 25.0948 42.7689 25.2828 42.3134C25.4708 41.8578 25.7469 41.4439 26.0954 41.0954C26.4439 40.7469 26.8578 40.4708 27.3134 40.2828C27.7689 40.0948 28.2572 39.9987 28.75 40H41.25C41.9928 39.9998 42.7188 40.2202 43.3362 40.6333C43.9535 41.0463 44.4343 41.6334 44.7175 42.32Z" fill="white"/>
</svg>
