<svg width="66" height="66" viewBox="0 0 66 66" fill="none" xmlns="http://www.w3.org/2000/svg">
<rect width="66" height="66" rx="33" fill="black"/>
<g clip-path="url(#clip0_32_15)">
<path d="M23.8276 34.4138L33.5 17.1897L43.1724 34.4138L33.5 38.8794L23.8276 34.4138Z" fill="#E1C0E4"/>
<path d="M33.5 48.4483L24.5345 36.6035L22.9655 34.9656L33.5 39.7932L44.0345 34.9656L33.5 48.4483Z" fill="#E1C0E4"/>
<path fill-rule="evenodd" clip-rule="evenodd" d="M33.5 51C33.3388 50.9999 33.1796 50.9601 33.0336 50.8834C32.8876 50.8067 32.7584 50.6949 32.6552 50.556L21.6552 35.756C21.5069 35.5565 21.4186 35.3096 21.4028 35.0505C21.387 34.7914 21.4445 34.5333 21.5672 34.313L32.5672 14.5797C32.6661 14.4023 32.8036 14.256 32.9668 14.1546C33.13 14.0532 33.3135 14 33.5 14C33.6866 14 33.8701 14.0532 34.0333 14.1546C34.1965 14.256 34.3339 14.4023 34.4328 14.5797L45.4328 34.313C45.5555 34.5333 45.6131 34.7914 45.5973 35.0505C45.5815 35.3096 45.4931 35.5565 45.3448 35.756L34.3448 50.556C34.2416 50.6949 34.1125 50.8067 33.9665 50.8834C33.8205 50.9601 33.6613 50.9999 33.5 51ZM42.8698 34.3697L33.5 38.568L24.1302 34.3673L33.5 17.5594L42.8698 34.3697ZM24.1278 35.9217L33.5 40.2271L42.87 35.9217L33.5 47.8427L24.13 35.9267L24.1278 35.9217Z" fill="black"/>
</g>
<defs>
<clipPath id="clip0_32_15">
<rect width="33" height="37" fill="white" transform="translate(50 51) rotate(180)"/>
</clipPath>
</defs>
</svg>
