<svg width="22" height="22" viewBox="0 0 22 22" fill="none" xmlns="http://www.w3.org/2000/svg">
<path d="M11 19.8C13.3339 19.8 15.5722 18.8729 17.2225 17.2225C18.8729 15.5722 19.8 13.3339 19.8 11C19.8 8.66609 18.8729 6.42778 17.2225 4.77746C15.5722 3.12714 13.3339 2.2 11 2.2C8.66609 2.2 6.42778 3.12714 4.77746 4.77746C3.12714 6.42778 2.2 8.66609 2.2 11C2.2 13.3339 3.12714 15.5722 4.77746 17.2225C6.42778 18.8729 8.66609 19.8 11 19.8V19.8ZM11 3.3C11.7227 3.3 12.5477 3.949 13.2242 5.3988C13.4629 5.9114 13.6708 6.501 13.8391 7.15H8.1609C8.3292 6.501 8.5371 5.9114 8.7769 5.3988C9.4512 3.949 10.2762 3.3 11 3.3ZM7.7792 4.9335C7.45438 5.64499 7.20265 6.38764 7.0279 7.15H4.3296C5.25826 5.54495 6.73334 4.32756 8.4854 3.7202C8.2203 4.0832 7.9838 4.4946 7.7792 4.9335ZM6.8112 8.25C6.66883 9.15971 6.59822 10.0792 6.6 11C6.6 11.957 6.6737 12.8832 6.8123 13.75H3.806C3.47053 12.872 3.29902 11.9399 3.3 11C3.3 10.032 3.4793 9.1036 3.806 8.25H6.8123H6.8112ZM7.0279 14.85C7.2215 15.6673 7.4756 16.4142 7.7792 17.0665C7.9838 17.5054 8.2203 17.9168 8.4854 18.2798C6.73334 17.6724 5.25826 16.455 4.3296 14.85H7.029H7.0279ZM8.1609 14.85H13.8391C13.6876 15.4513 13.4814 16.0375 13.2231 16.6012C12.5488 18.051 11.7238 18.7 11 18.7C10.2773 18.7 9.4523 18.051 8.7758 16.6012C8.51831 16.0374 8.31285 15.4512 8.162 14.85H8.1609ZM14.0734 13.75H7.9266C7.77374 12.8413 7.69794 11.9214 7.7 11C7.7 10.0287 7.7803 9.1025 7.9266 8.25H14.0734C14.2197 9.1025 14.3 10.0287 14.3 11C14.3 11.9713 14.2197 12.8975 14.0734 13.75ZM14.9721 14.85H17.6704C16.7417 16.455 15.2666 17.6724 13.5146 18.2798C13.7797 17.9168 14.0162 17.5054 14.2208 17.0665C14.5244 16.4142 14.7785 15.6673 14.9721 14.85V14.85ZM18.1951 13.75H15.1877C15.3263 12.8832 15.4 11.957 15.4 11C15.4 10.043 15.3263 9.1168 15.1877 8.25H18.194C18.5207 9.1036 18.7 10.032 18.7 11C18.7 11.968 18.5207 12.8964 18.194 13.75H18.1951ZM13.5146 3.7202C15.2667 4.32747 16.7418 5.54489 17.6704 7.15H14.971C14.7962 6.38764 14.5445 5.645 14.2197 4.9335C14.0238 4.50731 13.7873 4.101 13.5135 3.7202H13.5146Z" fill="black"/>
</svg>
