<svg width="160" height="80" viewBox="0 0 160 80" fill="none" xmlns="http://www.w3.org/2000/svg">
<rect width="20" height="20" fill="black"/>
<rect y="40" width="20" height="20" fill="black"/>
<rect x="20" y="20" width="20" height="20" fill="black"/>
<rect x="20" y="60" width="20" height="20" fill="black"/>
<rect x="60" y="20" width="20" height="20" fill="black"/>
<rect x="60" y="60" width="20" height="20" fill="black"/>
<rect x="100" y="20" width="20" height="20" fill="black"/>
<rect x="100" y="60" width="20" height="20" fill="black"/>
<rect x="140" y="20" width="20" height="20" fill="black"/>
<rect x="140" y="60" width="20" height="20" fill="black"/>
<rect x="40" width="20" height="20" fill="black"/>
<rect x="40" y="40" width="20" height="20" fill="black"/>
<rect x="80" width="20" height="20" fill="black"/>
<rect x="80" y="40" width="20" height="20" fill="black"/>
<rect x="120" width="20" height="20" fill="black"/>
<rect x="120" y="40" width="20" height="20" fill="black"/>
</svg>
