<svg width="17" height="17" viewBox="0 0 17 17" fill="none" xmlns="http://www.w3.org/2000/svg">
<path d="M14.3855 12.5432C15.7222 11.0925 15.5876 9.22959 15.5833 9.20834V3.54168C15.5833 3.35382 15.5087 3.17365 15.3759 3.04081C15.243 2.90797 15.0629 2.83334 14.875 2.83334H10.625C9.84371 2.83334 9.20833 3.46872 9.20833 4.25001V9.20834C9.20833 9.39621 9.28296 9.57637 9.4158 9.70921C9.54863 9.84205 9.7288 9.91668 9.91666 9.91668H12.0969C12.0819 10.2669 11.9773 10.6074 11.793 10.9055C11.4332 11.4729 10.7553 11.8603 9.77712 12.0558L9.20833 12.1692V14.1667H9.91666C11.888 14.1667 13.3917 13.6206 14.3855 12.5432ZM6.58891 12.5432C7.92625 11.0925 7.79096 9.22959 7.78671 9.20834V3.54168C7.78671 3.35382 7.71208 3.17365 7.57924 3.04081C7.4464 2.90797 7.26623 2.83334 7.07837 2.83334H2.82837C2.04708 2.83334 1.41171 3.46872 1.41171 4.25001V9.20834C1.41171 9.39621 1.48633 9.57637 1.61917 9.70921C1.75201 9.84205 1.93218 9.91668 2.12004 9.91668H4.30029C4.28532 10.2669 4.18069 10.6074 3.99641 10.9055C3.63658 11.4729 2.95871 11.8603 1.9805 12.0558L1.41171 12.1692V14.1667H2.12004C4.09133 14.1667 5.59512 13.6206 6.58891 12.5432V12.5432Z" fill="black"/>
</svg>
