<svg width="70" height="70" viewBox="0 0 70 70" fill="none" xmlns="http://www.w3.org/2000/svg">
<rect width="70" height="70" fill="black"/>
<g clip-path="url(#clip0_57_10)">
<path d="M23.2758 37.3032L35 16.5745L46.7241 37.3032L35 42.6773L23.2758 37.3032Z" fill="white"/>
<path d="M35 54.1932L24.1327 39.9384L22.2309 37.9672L35 43.777L47.7691 37.9672L35 54.1932Z" fill="white"/>
<path fill-rule="evenodd" clip-rule="evenodd" d="M35 57.2642C34.8046 57.2641 34.6115 57.2162 34.4346 57.1238C34.2576 57.0315 34.1011 56.897 33.976 56.7298L20.6427 38.9185C20.4629 38.6784 20.3558 38.3813 20.3366 38.0694C20.3175 37.7576 20.3873 37.447 20.536 37.1819L33.8693 13.4335C33.9892 13.22 34.1558 13.044 34.3536 12.9219C34.5514 12.7999 34.7738 12.7359 35 12.7359C35.2261 12.7359 35.4486 12.7999 35.6463 12.9219C35.8441 13.044 36.0108 13.22 36.1307 13.4335L49.464 37.1819C49.6127 37.447 49.6825 37.7576 49.6633 38.0694C49.6442 38.3813 49.5371 38.6784 49.3573 38.9185L36.024 56.7298C35.8989 56.897 35.7424 57.0315 35.5654 57.1238C35.3884 57.2162 35.1954 57.2641 35 57.2642ZM46.3573 37.2502L35 42.3027L23.6427 37.2472L35 17.0195L46.3573 37.2502ZM23.6397 39.118L35 44.2993L46.3576 39.118L35 53.4644L23.6424 39.1239L23.6397 39.118Z" fill="black"/>
</g>
<defs>
<clipPath id="clip0_57_10">
<rect width="40" height="40" fill="white" transform="translate(55 55) rotate(180)"/>
</clipPath>
</defs>
</svg>
