<svg width="48" height="22" viewBox="0 0 48 22" fill="none" xmlns="http://www.w3.org/2000/svg">
<path fill-rule="evenodd" clip-rule="evenodd" d="M2.375 11C2.375 10.6851 2.50011 10.383 2.72281 10.1603C2.94551 9.93762 3.24756 9.8125 3.5625 9.8125H41.5709L34.0967 2.34075C33.8738 2.11777 33.7485 1.81535 33.7485 1.5C33.7485 1.18466 33.8738 0.882235 34.0967 0.659254C34.3197 0.436274 34.6222 0.311005 34.9375 0.311005C35.2528 0.311005 35.5553 0.436274 35.7783 0.659254L45.2783 10.1593C45.3888 10.2696 45.4766 10.4006 45.5364 10.5449C45.5963 10.6891 45.6271 10.8438 45.6271 11C45.6271 11.1562 45.5963 11.3109 45.5364 11.4551C45.4766 11.5994 45.3888 11.7304 45.2783 11.8408L35.7783 21.3408C35.5553 21.5637 35.2528 21.689 34.9375 21.689C34.6222 21.689 34.3197 21.5637 34.0967 21.3408C33.8738 21.1178 33.7485 20.8153 33.7485 20.5C33.7485 20.1847 33.8738 19.8822 34.0967 19.6593L41.5709 12.1875H3.5625C3.24756 12.1875 2.94551 12.0624 2.72281 11.8397C2.50011 11.617 2.375 11.3149 2.375 11Z" fill="black"/>
</svg>
